<?xml version="1.0" encoding="utf-8"?>
<!-- Generator: Adobe Illustrator 22.1.0, SVG Export Plug-In . SVG Version: 6.00 Build 0)  -->
<svg version="1.1" id="Laag_1" focusable="false" xmlns="http://www.w3.org/2000/svg" xmlns:xlink="http://www.w3.org/1999/xlink"
	 x="0px" y="0px" viewBox="0 0 640 512" style="enable-background:new 0 0 640 512;" xml:space="preserve">
<style type="text/css">
	.st0{fill:#404040;}
</style>
<path class="st0" d="M624,232H480c-9.3,0-17.8,5.4-21.7,13.8l-35.8,76L343.2,17.9C340.5,7.4,330.9,0,320,0c-0.2,0-0.4,0-0.6,0
	c-11.1,0.3-20.6,8.2-22.9,19.1l-75.8,366.5l-37.5-136c-2.9-10.4-12.4-17.6-23.1-17.6H16c-8.8,0-16,7.2-16,16v16c0,8.8,7.2,16,16,16
	h125.7l59.2,214.4c2.9,10.4,12.3,17.6,23.1,17.6c0.2,0,0.5,0,0.8,0c11.1-0.4,20.5-8.3,22.7-19.1l75.2-363.4l70.1,268.6
	c2.5,9.8,10.9,16.9,21,17.8c10.5,1.1,19.6-4.5,23.9-13.7L495.2,280H624c8.8,0,16-7.2,16-16v-16C640,239.2,632.8,232,624,232z"/>
</svg>
